<svg id="svg" version="1.1" width="400" height="400" xmlns="http://www.w3.org/2000/svg" xmlns:xlink="http://www.w3.org/1999/xlink" style="display: block;"><g id="svgg"><path id="path0" d="" stroke="none" fill="#000000" fill-rule="evenodd"></path><path id="path1" d="" stroke="none" fill="#808080" fill-rule="evenodd"></path><path id="path2" d="M73.600 209.800 C 74.346 210.570,75.047 211.200,75.157 211.200 C 75.267 211.200,74.746 210.570,74.000 209.800 C 73.254 209.030,72.553 208.400,72.443 208.400 C 72.333 208.400,72.854 209.030,73.600 209.800 " stroke="none" fill="#aaaaaa" fill-rule="evenodd"></path><path id="path3" d="M159.819 36.827 C 156.155 37.388,152.033 38.998,148.100 41.405 C 147.002 42.077,146.400 42.265,146.400 41.936 C 146.400 40.922,130.631 57.306,129.592 59.400 C 129.047 60.500,128.387 61.671,128.127 62.002 C 125.687 65.105,124.943 76.263,126.820 81.600 C 129.720 89.848,134.755 94.906,144.200 99.062 C 146.652 100.141,156.339 100.339,159.479 99.374 C 166.573 97.194,167.431 96.516,184.002 80.010 C 198.791 65.278,198.858 65.229,202.100 66.591 C 206.642 68.500,180.149 41.829,175.176 39.486 C 169.987 37.041,164.558 36.101,159.819 36.827 M320.627 125.824 C 312.378 127.877,305.035 134.127,302.031 141.651 C 299.618 147.695,299.258 155.707,301.189 160.400 C 303.097 165.037,303.943 166.660,304.947 167.614 C 305.519 168.156,305.989 168.757,305.993 168.948 C 306.006 169.615,324.156 187.551,324.576 187.312 C 324.809 187.180,324.867 187.219,324.703 187.399 C 324.540 187.579,326.293 189.633,328.597 191.963 C 334.371 197.800,334.992 198.998,333.598 201.604 C 331.561 205.410,352.271 186.118,358.078 178.800 C 365.165 169.869,365.307 158.313,358.465 147.200 C 357.991 146.430,357.602 145.599,357.601 145.353 C 357.599 144.614,345.457 132.561,341.728 129.596 C 337.396 126.152,326.869 124.270,320.627 125.824 M53.171 209.487 C 40.266 222.507,39.758 223.151,37.832 228.931 C 35.514 235.888,36.643 244.102,40.859 250.957 C 41.805 252.495,41.949 252.986,41.531 253.251 C 41.121 253.511,41.154 253.589,41.673 253.594 C 42.043 253.597,42.451 253.929,42.578 254.331 C 43.012 255.699,56.874 268.978,59.400 270.446 C 68.815 275.917,77.872 275.878,87.779 270.325 C 90.926 268.561,96.585 262.250,97.397 259.600 C 97.565 259.050,98.034 257.944,98.438 257.141 C 101.365 251.340,99.842 237.343,95.769 232.603 C 95.236 231.983,94.800 231.360,94.800 231.219 C 94.800 231.077,94.158 230.340,93.373 229.581 C 92.588 228.821,91.463 227.675,90.873 227.033 C 90.283 226.391,89.459 225.581,89.043 225.233 C 88.626 224.885,87.996 224.263,87.643 223.851 C 87.289 223.439,82.623 218.759,77.273 213.451 C 65.533 201.802,65.410 201.628,66.436 198.024 C 67.043 195.892,64.274 198.285,53.171 209.487 M243.519 300.204 C 243.365 300.364,242.714 300.539,242.073 300.594 C 240.765 300.705,237.287 301.918,236.460 302.551 C 236.162 302.779,235.704 302.997,235.441 303.035 C 233.832 303.271,228.597 308.006,216.464 320.197 C 201.973 334.759,202.196 334.578,199.400 334.014 C 199.180 333.970,198.820 333.903,198.600 333.867 C 198.380 333.830,198.068 333.620,197.906 333.400 C 197.744 333.180,197.609 333.407,197.606 333.905 C 197.600 334.809,217.035 354.705,221.200 358.058 C 229.993 365.137,241.108 365.340,252.518 358.631 C 253.573 358.010,254.538 357.605,254.663 357.730 C 254.915 357.982,267.184 345.739,269.338 343.086 C 276.490 334.277,276.598 318.954,269.567 310.659 C 265.620 306.002,259.655 301.633,257.200 301.603 C 256.870 301.598,256.060 301.302,255.400 300.945 C 254.126 300.254,244.076 299.627,243.519 300.204 " stroke="none" fill="#cdcdcd" fill-rule="evenodd"></path><path id="path4" d="M190.400 0.525 C 189.850 0.774,189.310 1.073,189.200 1.189 C 189.090 1.305,188.640 1.462,188.200 1.537 C 186.272 1.869,178.800 7.849,178.800 9.061 C 178.800 9.332,178.592 9.681,178.338 9.838 C 178.029 10.030,177.982 9.939,178.198 9.562 C 178.374 9.253,174.902 12.589,170.482 16.975 C 166.062 21.362,162.555 25.142,162.687 25.375 C 162.820 25.609,162.781 25.667,162.601 25.503 C 162.180 25.122,161.136 25.973,161.434 26.455 C 161.558 26.656,161.421 26.770,161.130 26.710 C 160.838 26.649,160.649 26.838,160.710 27.130 C 160.770 27.421,160.665 27.564,160.476 27.447 C 159.991 27.147,156.715 30.575,157.091 30.988 C 157.261 31.175,157.208 31.219,156.972 31.085 C 156.419 30.771,147.473 39.729,147.886 40.184 C 148.059 40.373,148.004 40.416,147.763 40.280 C 147.523 40.143,146.713 40.695,145.963 41.507 C 145.214 42.319,145.005 42.644,145.500 42.229 C 146.057 41.763,146.400 41.661,146.400 41.961 C 146.400 42.253,147.074 42.033,148.100 41.405 C 157.317 35.764,165.975 35.151,175.176 39.486 C 178.933 41.256,202.937 64.592,202.718 66.262 C 202.603 67.142,209.041 74.000,209.983 74.000 C 210.212 74.000,210.355 74.150,210.300 74.333 C 210.159 74.804,213.039 77.628,213.347 77.320 C 213.486 77.181,213.600 77.263,213.600 77.503 C 213.600 78.276,215.656 80.412,216.136 80.137 C 216.391 79.991,216.480 80.006,216.333 80.170 C 215.986 80.557,217.238 82.024,217.681 81.750 C 217.867 81.635,217.970 81.779,217.910 82.070 C 217.849 82.362,218.038 82.551,218.330 82.490 C 218.621 82.430,218.761 82.540,218.640 82.735 C 218.360 83.189,221.421 86.046,221.790 85.676 C 221.942 85.524,222.007 85.606,221.933 85.857 C 221.737 86.530,229.926 94.493,230.470 94.157 C 230.733 93.994,230.814 94.054,230.662 94.300 C 230.439 94.660,234.279 97.600,234.972 97.600 C 235.102 97.600,235.996 97.970,236.958 98.422 C 237.920 98.875,239.134 99.301,239.654 99.369 C 240.174 99.438,240.906 99.624,241.281 99.783 C 241.655 99.941,242.178 99.937,242.443 99.774 C 242.747 99.585,242.819 99.646,242.638 99.938 C 241.869 101.183,255.268 100.129,257.000 98.809 C 257.220 98.641,258.046 98.297,258.835 98.043 C 259.624 97.789,260.700 97.180,261.225 96.691 C 261.751 96.201,262.185 95.889,262.191 95.997 C 262.196 96.105,263.049 95.584,264.086 94.839 C 266.374 93.196,270.100 88.885,269.738 88.299 C 269.594 88.067,269.657 87.988,269.877 88.124 C 270.353 88.418,272.861 83.597,272.943 82.229 C 272.974 81.705,273.111 81.345,273.247 81.429 C 273.614 81.656,274.801 75.294,274.800 73.100 C 274.800 72.030,274.615 71.200,274.376 71.200 C 274.143 71.200,274.072 71.008,274.217 70.773 C 274.627 70.110,273.580 65.165,273.094 65.466 C 272.864 65.608,272.792 65.537,272.933 65.308 C 273.472 64.437,269.828 57.012,269.087 57.470 C 268.853 57.614,268.797 57.528,268.958 57.268 C 269.314 56.693,262.458 49.517,261.888 49.869 C 261.662 50.009,261.590 49.940,261.728 49.717 C 262.037 49.217,259.008 46.338,258.579 46.724 C 258.410 46.876,258.381 46.807,258.515 46.571 C 258.823 46.030,251.870 39.063,251.446 39.487 C 251.274 39.659,251.193 39.530,251.267 39.200 C 251.340 38.868,251.164 38.649,250.870 38.710 C 250.579 38.770,250.438 38.662,250.558 38.468 C 250.770 38.125,249.108 36.291,248.770 36.496 C 248.677 36.553,248.648 36.522,248.706 36.427 C 248.943 36.042,232.230 19.657,231.831 19.883 C 231.594 20.018,231.541 19.973,231.713 19.784 C 232.115 19.343,223.986 11.161,223.466 11.483 C 223.252 11.615,223.186 11.547,223.319 11.331 C 223.641 10.811,219.055 6.288,218.613 6.689 C 218.425 6.860,218.394 6.787,218.543 6.527 C 218.862 5.969,217.252 4.721,216.673 5.078 C 216.455 5.213,216.391 5.138,216.531 4.911 C 216.864 4.373,214.473 2.740,211.146 1.235 L 208.491 0.033 199.946 0.053 C 194.481 0.065,191.039 0.236,190.400 0.525 M138.191 49.300 L 135.000 52.600 138.300 49.409 C 141.365 46.446,141.782 46.000,141.491 46.000 C 141.430 46.000,139.945 47.485,138.191 49.300 M150.912 100.295 C 151.964 100.377,153.584 100.376,154.512 100.292 C 155.440 100.208,154.580 100.141,152.600 100.142 C 150.620 100.143,149.860 100.212,150.912 100.295 M67.400 126.039 C 66.520 126.239,65.440 126.570,65.000 126.772 C 64.560 126.975,63.750 127.290,63.199 127.471 C 60.205 128.455,53.013 133.439,53.308 134.324 C 53.359 134.476,53.220 134.653,53.000 134.718 C 52.195 134.957,50.038 137.338,50.277 137.725 C 50.413 137.944,50.344 138.013,50.125 137.877 C 49.606 137.556,47.091 140.148,47.493 140.590 C 47.662 140.776,47.605 140.817,47.367 140.682 C 46.814 140.367,43.076 144.133,43.490 144.588 C 43.661 144.775,43.599 144.814,43.353 144.674 C 42.865 144.395,41.474 145.700,41.799 146.132 C 41.910 146.280,41.883 146.313,41.739 146.206 C 41.330 145.901,31.607 155.688,31.880 156.130 C 32.014 156.346,31.947 156.415,31.732 156.282 C 31.215 155.962,13.494 173.752,13.893 174.190 C 14.062 174.376,14.007 174.419,13.772 174.285 C 12.585 173.611,3.400 184.188,1.385 188.551 L 0.000 191.548 -0.000 199.947 C -0.000 208.188,0.021 208.395,1.082 210.874 C 2.872 215.054,7.361 220.879,8.499 220.500 C 8.665 220.445,8.755 220.625,8.700 220.900 C 8.645 221.175,8.825 221.355,9.100 221.300 C 9.375 221.245,9.600 221.431,9.600 221.713 C 9.600 222.464,14.185 226.876,14.587 226.511 C 14.775 226.340,14.818 226.394,14.683 226.632 C 14.547 226.869,15.419 228.033,16.618 229.218 C 17.818 230.403,18.803 231.199,18.806 230.986 C 18.809 230.774,19.049 231.050,19.339 231.600 C 19.628 232.150,20.076 232.555,20.333 232.500 C 20.590 232.445,20.755 232.625,20.700 232.900 C 20.645 233.175,20.870 233.340,21.200 233.267 C 21.530 233.193,21.659 233.275,21.486 233.447 C 21.075 233.858,31.627 244.431,32.135 244.117 C 32.349 243.985,32.413 244.055,32.278 244.273 C 31.965 244.781,34.947 247.720,35.359 247.308 C 35.528 247.139,35.607 247.191,35.533 247.424 C 35.343 248.029,39.631 252.428,40.119 252.127 C 40.341 251.989,40.417 252.049,40.286 252.260 C 40.156 252.472,40.958 253.534,42.069 254.622 C 44.012 256.525,44.052 256.544,43.144 255.117 C 42.625 254.301,41.930 253.623,41.600 253.611 C 41.120 253.592,41.106 253.520,41.531 253.251 C 41.949 252.986,41.805 252.495,40.859 250.957 C 35.645 242.481,35.269 233.692,39.721 224.400 C 41.394 220.909,64.821 197.018,66.225 197.371 C 67.164 197.606,69.847 195.203,69.307 194.610 C 69.138 194.424,69.199 194.385,69.442 194.523 C 69.982 194.831,74.891 189.837,74.488 189.390 C 74.329 189.215,74.394 189.182,74.632 189.317 C 75.185 189.632,79.324 185.468,78.910 185.013 C 78.740 184.825,78.800 184.786,79.044 184.925 C 79.569 185.224,81.664 183.011,81.270 182.573 C 81.122 182.407,81.194 182.382,81.430 182.516 C 81.908 182.788,90.524 174.296,90.203 173.869 C 90.091 173.721,90.105 173.675,90.234 173.767 C 90.597 174.027,91.985 172.700,91.750 172.319 C 91.635 172.133,91.779 172.030,92.070 172.090 C 92.362 172.151,92.551 171.962,92.490 171.670 C 92.430 171.379,92.549 171.245,92.754 171.372 C 93.212 171.655,95.659 168.419,95.357 167.930 C 95.238 167.738,95.338 167.630,95.579 167.690 C 96.322 167.877,98.664 163.096,99.769 159.138 C 100.915 155.033,100.217 143.600,98.820 143.600 C 98.682 143.600,98.542 143.223,98.507 142.762 C 98.291 139.891,91.481 130.982,89.900 131.501 C 89.735 131.556,89.645 131.406,89.700 131.169 C 89.922 130.212,81.393 126.087,80.167 126.557 C 79.832 126.686,79.656 126.633,79.775 126.440 C 80.269 125.642,70.529 125.326,67.400 126.039 M306.075 134.384 C 305.594 135.035,305.200 135.700,305.200 135.862 C 305.200 136.023,305.650 135.545,306.200 134.800 C 306.750 134.055,307.200 133.390,307.200 133.322 C 307.200 132.995,306.875 133.302,306.075 134.384 M357.601 145.297 C 357.602 145.574,357.991 146.430,358.465 147.200 C 365.307 158.313,365.165 169.869,358.078 178.800 C 354.960 182.729,334.916 202.400,334.030 202.400 C 333.502 202.400,333.259 202.227,333.421 201.967 C 333.568 201.728,331.238 203.983,328.244 206.978 C 325.250 209.972,322.800 212.597,322.800 212.811 C 322.800 213.025,322.597 213.200,322.349 213.200 C 321.748 213.200,312.800 222.250,312.800 222.858 C 312.800 223.120,312.691 223.224,312.557 223.091 C 312.274 222.807,306.596 228.455,306.718 228.900 C 306.763 229.065,306.637 229.200,306.438 229.200 C 305.982 229.200,303.075 233.209,303.340 233.473 C 303.447 233.580,303.252 233.997,302.907 234.400 C 301.787 235.709,299.848 241.686,300.151 242.900 C 300.247 243.285,300.162 243.600,299.963 243.600 C 299.763 243.600,299.600 245.130,299.600 247.000 C 299.600 248.870,299.735 250.401,299.900 250.403 C 300.065 250.404,300.234 251.181,300.276 252.128 C 300.430 255.597,304.939 264.856,306.120 264.126 C 306.342 263.989,306.410 264.060,306.271 264.285 C 305.340 265.792,313.488 271.267,319.496 273.173 C 322.897 274.251,334.072 274.287,333.410 273.217 C 333.310 273.054,333.753 272.906,334.394 272.888 C 335.799 272.848,338.474 271.702,341.539 269.828 C 343.944 268.357,355.075 257.460,354.890 256.757 C 354.830 256.528,354.937 256.437,355.128 256.555 C 355.566 256.826,369.439 242.914,369.290 242.353 C 369.230 242.126,369.337 242.038,369.529 242.156 C 369.876 242.370,372.023 240.381,372.139 239.737 C 372.173 239.552,372.308 239.436,372.440 239.480 C 372.571 239.524,374.956 237.258,377.740 234.446 C 380.523 231.633,382.800 229.398,382.800 229.480 C 382.800 229.561,383.385 228.959,384.100 228.141 C 384.815 227.323,385.351 226.494,385.290 226.297 C 385.230 226.101,385.334 226.036,385.523 226.152 C 386.008 226.452,389.686 222.626,389.310 222.212 C 389.139 222.025,389.202 221.987,389.448 222.127 C 390.557 222.760,396.928 215.193,398.845 210.965 L 400.000 208.418 400.000 199.498 C 400.000 192.072,399.896 190.429,399.377 189.689 C 399.035 189.200,398.859 188.800,398.985 188.800 C 399.326 188.800,397.568 185.449,397.046 185.106 C 396.801 184.944,396.750 184.809,396.934 184.806 C 397.437 184.797,394.989 181.838,392.532 179.484 C 389.558 176.636,389.148 176.228,384.732 171.736 C 382.604 169.571,380.534 167.513,380.132 167.162 C 379.729 166.812,375.062 162.132,369.759 156.762 C 359.129 145.998,357.599 144.555,357.601 145.297 M299.740 152.000 C 299.740 153.870,299.809 154.635,299.893 153.700 C 299.977 152.765,299.977 151.235,299.893 150.300 C 299.809 149.365,299.740 150.130,299.740 152.000 M66.000 200.176 C 66.000 200.933,66.138 201.638,66.307 201.743 C 66.476 201.847,66.548 201.228,66.465 200.366 C 66.281 198.432,66.000 198.318,66.000 200.176 M98.867 239.220 C 99.101 239.892,99.367 240.367,99.457 240.276 C 99.656 240.078,98.901 238.000,98.631 238.000 C 98.527 238.000,98.633 238.549,98.867 239.220 M100.142 247.400 C 100.141 249.380,100.208 250.240,100.292 249.312 C 100.376 248.384,100.377 246.764,100.295 245.712 C 100.212 244.660,100.143 245.420,100.142 247.400 M95.600 262.800 C 95.130 263.460,94.836 264.000,94.946 264.000 C 95.056 264.000,95.530 263.460,96.000 262.800 C 96.470 262.140,96.764 261.600,96.654 261.600 C 96.544 261.600,96.070 262.140,95.600 262.800 M55.487 268.023 C 56.195 268.758,56.862 269.272,56.969 269.165 C 57.075 269.058,56.496 268.457,55.681 267.829 L 54.200 266.687 55.487 268.023 M72.307 274.690 C 73.026 274.779,74.106 274.777,74.707 274.686 C 75.308 274.595,74.720 274.522,73.400 274.524 C 72.080 274.526,71.588 274.601,72.307 274.690 M147.665 300.145 C 146.423 300.410,145.670 300.752,145.865 300.964 C 146.061 301.177,145.988 301.206,145.691 301.035 C 145.139 300.717,141.652 301.854,141.000 302.564 C 140.780 302.804,140.253 303.060,139.829 303.134 C 138.217 303.414,132.230 308.602,132.680 309.329 C 132.814 309.546,132.733 309.606,132.500 309.462 C 131.661 308.943,127.236 316.688,127.827 317.643 C 127.993 317.912,127.955 318.019,127.742 317.887 C 127.248 317.582,126.230 321.001,126.624 321.639 C 126.824 321.963,126.755 322.020,126.416 321.810 C 125.623 321.320,126.103 332.443,126.977 334.800 C 128.158 337.987,128.562 338.747,128.947 338.509 C 129.154 338.381,129.195 338.484,129.039 338.737 C 128.676 339.325,130.017 341.637,130.535 341.316 C 130.749 341.184,130.796 341.283,130.640 341.536 C 130.300 342.086,132.334 344.888,132.845 344.572 C 133.040 344.452,133.200 344.597,133.200 344.895 C 133.200 345.482,135.945 348.331,136.600 348.424 C 136.820 348.455,136.965 348.612,136.922 348.773 C 136.801 349.232,163.591 375.813,164.050 375.690 C 164.275 375.630,164.363 375.736,164.245 375.927 C 163.946 376.411,166.576 378.883,166.990 378.507 C 167.176 378.338,167.216 378.396,167.080 378.637 C 166.772 379.177,169.335 381.731,169.760 381.307 C 169.929 381.138,170.007 381.209,169.933 381.464 C 169.749 382.106,178.806 391.244,179.314 390.930 C 179.539 390.790,179.614 390.854,179.480 391.070 C 179.191 391.538,182.657 394.965,185.200 396.726 C 187.054 398.010,190.000 399.391,190.000 398.977 C 190.000 398.848,190.283 399.026,190.629 399.371 C 191.163 399.906,192.625 400.000,200.440 400.000 L 209.622 400.000 212.371 398.641 C 215.747 396.973,217.649 395.603,217.322 395.075 C 217.187 394.856,217.270 394.796,217.508 394.943 C 217.951 395.217,226.800 386.692,226.800 385.990 C 226.800 385.776,226.984 385.600,227.210 385.600 C 227.764 385.600,238.800 374.469,238.800 373.910 C 238.800 373.666,238.897 373.564,239.015 373.682 C 239.301 373.968,254.800 358.610,254.800 358.041 C 254.800 357.404,254.378 357.493,252.800 358.465 C 241.679 365.312,230.024 365.161,221.200 358.058 C 217.035 354.705,197.600 334.809,197.606 333.905 C 197.611 333.174,197.687 333.115,198.000 333.600 C 198.213 333.930,198.391 334.033,198.394 333.828 C 198.402 333.323,189.506 324.574,189.113 324.700 C 188.941 324.755,188.845 324.653,188.900 324.474 C 189.028 324.058,181.136 316.009,180.595 316.004 C 180.372 316.002,180.005 315.595,179.780 315.100 C 179.555 314.605,179.152 314.245,178.885 314.300 C 178.618 314.355,178.444 314.265,178.499 314.100 C 178.851 313.025,168.747 304.198,165.400 302.657 C 164.520 302.252,163.260 301.674,162.600 301.374 C 159.024 299.745,152.183 299.182,147.665 300.145 M246.300 299.893 C 247.235 299.977,248.765 299.977,249.700 299.893 C 250.635 299.809,249.870 299.740,248.000 299.740 C 246.130 299.740,245.365 299.809,246.300 299.893 M228.175 308.100 L 227.000 309.400 228.300 308.225 C 229.015 307.579,229.600 306.994,229.600 306.925 C 229.600 306.616,229.270 306.888,228.175 308.100 M214.175 322.100 L 213.000 323.400 214.300 322.225 C 215.015 321.579,215.600 320.994,215.600 320.925 C 215.600 320.616,215.270 320.888,214.175 322.100 M210.585 325.700 L 208.600 327.800 210.700 325.815 C 211.855 324.723,212.800 323.778,212.800 323.715 C 212.800 323.417,212.429 323.749,210.585 325.700 M206.975 329.300 L 205.800 330.600 207.100 329.425 C 207.815 328.779,208.400 328.194,208.400 328.125 C 208.400 327.816,208.070 328.088,206.975 329.300 M204.562 331.657 C 204.143 332.129,203.260 332.848,202.600 333.256 C 201.940 333.663,201.632 333.998,201.915 333.999 C 202.415 334.000,206.040 330.830,205.562 330.810 C 205.431 330.805,204.981 331.186,204.562 331.657 " stroke="none" fill="#fcfcfc" fill-rule="evenodd"></path></g></svg>